<svg id="svg" xmlns="http://www.w3.org/2000/svg" width="424" height="784" style="transform-origin: 0px 0px 0px; transform: matrix(0.900296, 0, 0, 0.900296, 160.512, 48.718);"><rect id="rectBackground" width="424" height="784" fill="none" style="background-color: transparent;"></rect><mask id="mask" mask-type="alpha" maskUnits="userSpaceOnUse"><rect transform="translate(32, 32)" width="360" height="720" fill="white"></rect></mask><svg><path transform="translate(32, 32) translate(30,30) rotate(90) translate(-30,-30)" fill="#1C1C1C" d="M0 0h60v60H0z"></path><path transform="translate(32, 32) translate(30,30) rotate(90) translate(-30,-30)" fill="#4C4C4C" d="M30 60H0V30l15-15 30 30-15 15z"></path><path transform="translate(32, 32) translate(30,30) rotate(90) translate(-30,-30)" fill="#A4A4A4" d="M15 15h30v30H15z"></path></svg><svg><path transform="translate(32, 92) translate(30,30) rotate(90) translate(-30,-30)" fill="#1C1C1C" d="M0 0h60v60H0z"></path><path transform="translate(32, 92) translate(30,30) rotate(90) translate(-30,-30)" fill="#A4A4A4" clip-rule="evenodd" fill-rule="evenodd" d="M9.5 9.5v41h41v-41h-41zm40 30v-9h-9v9h9zm-10 0v-9h-9v9h9zm10 1h-9v9h9v-9zm-10 9v-9h-9v9h9zm10-20h-9v-9h9v9zm-10-9v9h-9v-9h9zm10-1v-9h-9v9h9zm-10 0v-9h-9v9h9zm-10 21v9h-9v-9h9zm0-10v9h-9v-9h9zm0-1v-9h-9v9h9zm-9-10h9v-9h-9v9zm-1 20v-9h-9v9h9zm0 10v-9h-9v9h9zm0-29v9h-9v-9h9zm0-1h-9v-9h9v9z"></path><path transform="translate(32, 92) translate(30,30) rotate(90) translate(-30,-30)" fill="#CBCBCB" d="M23 37v-4h4v4z"></path><path transform="translate(32, 92) translate(30,30) rotate(90) translate(-30,-30)" fill="#4C4C4C" d="M43 17v-4h4v4z"></path><path transform="translate(32, 92) translate(30,30) rotate(90) translate(-30,-30)" fill="#4C4C4C" d="M33 17v-4h4v4z"></path><path transform="translate(32, 92) translate(30,30) rotate(90) translate(-30,-30)" fill="#CBCBCB" d="M43 47v-4h4v4z"></path><path transform="translate(32, 92) translate(30,30) rotate(90) translate(-30,-30)" fill="#CBCBCB" d="M13 47v-4h4v4z"></path></svg><svg><path transform="translate(32, 152) translate(30,30) rotate(270) translate(-30,-30)" fill="#4C4C4C" d="M0 0h60v60H0z"></path><path transform="translate(32, 152) translate(30,30) rotate(270) translate(-30,-30)" fill="#CBCBCB" d="M30 60H0V30l15-15 30 30-15 15z"></path><path transform="translate(32, 152) translate(30,30) rotate(270) translate(-30,-30)" fill="#A4A4A4" d="M15 15h30v30H15z"></path></svg><svg><path transform="translate(32, 212)" fill="#1C1C1C" d="M0 0h60v60H0z"></path><path transform="translate(32, 212)" fill="#A4A4A4" d="M8 7h45v45H8z"></path><path transform="translate(32, 212)" fill="#4C4C4C" d="M16 14h30v30H16z"></path><path transform="translate(32, 212)" fill="#CBCBCB" d="M23 22h15v15H23z"></path></svg><svg><path transform="translate(32, 272)" fill="#1C1C1C" d="M0 0h60v60H0z"></path><path transform="translate(32, 272)" fill="#CBCBCB" d="M12 12h5v5h-5z"></path><path transform="translate(32, 272)" fill="#A4A4A4" d="M22 12h5v5h-5z"></path><path transform="translate(32, 272)" fill="#CBCBCB" d="M32 12h5v5h-5z"></path><path transform="translate(32, 272)" fill="#CBCBCB" d="M42 12h5v5h-5z"></path><path transform="translate(32, 272)" fill="#A4A4A4" d="M12 22h5v5h-5z"></path><path transform="translate(32, 272)" fill="#A4A4A4" d="M22 22h5v5h-5z"></path><path transform="translate(32, 272)" fill="#4C4C4C" d="M32 22h5v5h-5z"></path><path transform="translate(32, 272)" fill="#4C4C4C" d="M42 22h5v5h-5z"></path><path transform="translate(32, 272)" fill="#CBCBCB" d="M12 32h5v5h-5zM22 32h5v5h-5z"></path><path transform="translate(32, 272)" fill="#CBCBCB" d="M32 32h5v5h-5z"></path><path transform="translate(32, 272)" fill="#4C4C4C" d="M42 32h5v5h-5z"></path><path transform="translate(32, 272)" fill="#CBCBCB" d="M12 42h5v5h-5z"></path><path transform="translate(32, 272)" fill="#CBCBCB" d="M22 42h5v5h-5z"></path><path transform="translate(32, 272)" fill="#4C4C4C" d="M32 42h5v5h-5z"></path><path transform="translate(32, 272)" fill="#CBCBCB" d="M42 42h5v5h-5z"></path></svg><svg><path transform="translate(32, 332)" fill="#1C1C1C" d="M0 0h60v60H0z"></path><path transform="translate(32, 332)" fill="#4C4C4C" d="M0 0h15v15H0z"></path><path transform="translate(32, 332)" fill="#4C4C4C" d="M15 15h15v15H15z"></path><path transform="translate(32, 332)" fill="#A4A4A4" d="M45 15h15v15H45z"></path><path transform="translate(32, 332)" fill="#A4A4A4" d="M30 0h15v15H30z"></path><path transform="translate(32, 332)" fill="#A4A4A4" d="M0 30h15v15H0z"></path><path transform="translate(32, 332)" fill="#CBCBCB" d="M15 45h15v15H15z"></path><path transform="translate(32, 332)" fill="#A4A4A4" d="M45 45h15v15H45z"></path><path transform="translate(32, 332)" fill="#4C4C4C" d="M30 30h15v15H30z"></path></svg><svg><path transform="translate(32, 392)" fill="#A4A4A4" d="M60 0v30H30V0z"></path><path transform="translate(32, 392)" fill="#4C4C4C" d="M30 0v30H0V0z"></path><path transform="translate(32, 392)" fill="#1C1C1C" d="M60 30v30H30V30z"></path><path transform="translate(32, 392)" fill="#CBCBCB" d="M30 30v30H0V30z"></path></svg><svg><path transform="translate(32, 452)" fill="#A4A4A4" d="M0 0h60v60H0z"></path><path transform="translate(32, 452)" fill="#CBCBCB" d="M0 30L30 0l30 30-30 30z"></path><path transform="translate(32, 452)" fill="#4C4C4C" d="M15 15h30v30H15z"></path></svg><svg><path transform="translate(32, 512) translate(30,30) rotate(90) translate(-30,-30)" fill="#4C4C4C" d="M0 0h60v60H0z"></path><path transform="translate(32, 512) translate(30,30) rotate(90) translate(-30,-30)" fill="#CBCBCB" d="M0 30h60v30H0z"></path><path transform="translate(32, 512) translate(30,30) rotate(90) translate(-30,-30)" fill="#A4A4A4" d="M15 15h30v30H15z"></path></svg><svg><path transform="translate(32, 572) translate(30,30) rotate(270) translate(-30,-30)" fill="#CBCBCB" d="M0 0h60v60H0z"></path><path transform="translate(32, 572) translate(30,30) rotate(270) translate(-30,-30)" fill="#1C1C1C" d="M30 60H0V30l15-15 30 30-15 15z"></path><path transform="translate(32, 572) translate(30,30) rotate(270) translate(-30,-30)" fill="#4C4C4C" d="M15 15h30v30H15z"></path></svg><svg><path transform="translate(32, 632) translate(30,30) rotate(0) translate(-30,-30)" fill="#A4A4A4" d="M0 0h60v60H0z"></path><path transform="translate(32, 632) translate(30,30) rotate(0) translate(-30,-30)" fill="#4C4C4C" d="M0 15h45v45H0z"></path><path transform="translate(32, 632) translate(30,30) rotate(0) translate(-30,-30)" fill="#1C1C1C" d="M0 30h30v30H0z"></path><path transform="translate(32, 632) translate(30,30) rotate(0) translate(-30,-30)" fill="#CBCBCB" d="M0 45h15v15H0z"></path></svg><svg><path transform="translate(32, 692)" fill="#4C4C4C" d="M0 0h60v60H0z"></path><path transform="translate(32, 692)" fill="#1C1C1C" d="M12 12h5v5h-5z"></path><path transform="translate(32, 692)" fill="#1C1C1C" d="M22 12h5v5h-5z"></path><path transform="translate(32, 692)" fill="#A4A4A4" d="M32 12h5v5h-5z"></path><path transform="translate(32, 692)" fill="#A4A4A4" d="M42 12h5v5h-5z"></path><path transform="translate(32, 692)" fill="#1C1C1C" d="M12 22h5v5h-5z"></path><path transform="translate(32, 692)" fill="#A4A4A4" d="M22 22h5v5h-5z"></path><path transform="translate(32, 692)" fill="#CBCBCB" d="M32 22h5v5h-5z"></path><path transform="translate(32, 692)" fill="#1C1C1C" d="M42 22h5v5h-5z"></path><path transform="translate(32, 692)" fill="#CBCBCB" d="M12 32h5v5h-5zM22 32h5v5h-5z"></path><path transform="translate(32, 692)" fill="#1C1C1C" d="M32 32h5v5h-5z"></path><path transform="translate(32, 692)" fill="#1C1C1C" d="M42 32h5v5h-5z"></path><path transform="translate(32, 692)" fill="#CBCBCB" d="M12 42h5v5h-5z"></path><path transform="translate(32, 692)" fill="#1C1C1C" d="M22 42h5v5h-5z"></path><path transform="translate(32, 692)" fill="#A4A4A4" d="M32 42h5v5h-5z"></path><path transform="translate(32, 692)" fill="#A4A4A4" d="M42 42h5v5h-5z"></path></svg><svg><path transform="translate(92, 32)" fill="#CBCBCB" d="M0 0h60v60H0z"></path><path transform="translate(92, 32)" fill="#4C4C4C" d="M8 7h45v45H8z"></path><path transform="translate(92, 32)" fill="#A4A4A4" d="M16 14h30v30H16z"></path><path transform="translate(92, 32)" fill="#1C1C1C" d="M23 22h15v15H23z"></path></svg><svg><path transform="translate(92, 92) translate(30,30) rotate(90) translate(-30,-30)" fill="#4C4C4C" d="M0 0h60v60H0z"></path><path transform="translate(92, 92) translate(30,30) rotate(90) translate(-30,-30)" fill="#A4A4A4" d="M0 30h60v30H0z"></path><path transform="translate(92, 92) translate(30,30) rotate(90) translate(-30,-30)" fill="#CBCBCB" d="M15 15h30v30H15z"></path></svg><svg><path transform="translate(92, 152)" fill="#CBCBCB" d="M0 0h60v60H0z"></path><path transform="translate(92, 152)" fill="#4C4C4C" d="M0 0h15v15H0z"></path><path transform="translate(92, 152)" fill="#A4A4A4" d="M15 15h15v15H15z"></path><path transform="translate(92, 152)" fill="#4C4C4C" d="M45 15h15v15H45z"></path><path transform="translate(92, 152)" fill="#4C4C4C" d="M30 0h15v15H30z"></path><path transform="translate(92, 152)" fill="#4C4C4C" d="M0 30h15v15H0z"></path><path transform="translate(92, 152)" fill="#4C4C4C" d="M15 45h15v15H15z"></path><path transform="translate(92, 152)" fill="#A4A4A4" d="M45 45h15v15H45z"></path><path transform="translate(92, 152)" fill="#4C4C4C" d="M30 30h15v15H30z"></path></svg><svg><path transform="translate(92, 212) translate(30,30) rotate(180) translate(-30,-30)" fill="#4C4C4C" d="M0 0h60v60H0z"></path><path transform="translate(92, 212) translate(30,30) rotate(180) translate(-30,-30)" fill="#A4A4A4" clip-rule="evenodd" fill-rule="evenodd" d="M9.5 9.5v41h41v-41h-41zm40 30v-9h-9v9h9zm-10 0v-9h-9v9h9zm10 1h-9v9h9v-9zm-10 9v-9h-9v9h9zm10-20h-9v-9h9v9zm-10-9v9h-9v-9h9zm10-1v-9h-9v9h9zm-10 0v-9h-9v9h9zm-10 21v9h-9v-9h9zm0-10v9h-9v-9h9zm0-1v-9h-9v9h9zm-9-10h9v-9h-9v9zm-1 20v-9h-9v9h9zm0 10v-9h-9v9h9zm0-29v9h-9v-9h9zm0-1h-9v-9h9v9z"></path><path transform="translate(92, 212) translate(30,30) rotate(180) translate(-30,-30)" fill="#1C1C1C" d="M23 37v-4h4v4z"></path><path transform="translate(92, 212) translate(30,30) rotate(180) translate(-30,-30)" fill="#1C1C1C" d="M43 17v-4h4v4z"></path><path transform="translate(92, 212) translate(30,30) rotate(180) translate(-30,-30)" fill="#CBCBCB" d="M33 17v-4h4v4z"></path><path transform="translate(92, 212) translate(30,30) rotate(180) translate(-30,-30)" fill="#CBCBCB" d="M43 47v-4h4v4z"></path><path transform="translate(92, 212) translate(30,30) rotate(180) translate(-30,-30)" fill="#1C1C1C" d="M13 47v-4h4v4z"></path></svg><svg><path transform="translate(92, 272)" fill="#1C1C1C" d="M0 0h60v60H0z"></path><path transform="translate(92, 272)" fill="#A4A4A4" d="M0 30L30 0l30 30-30 30z"></path><path transform="translate(92, 272)" fill="#CBCBCB" d="M15 15h30v30H15z"></path></svg><svg><path transform="translate(92, 332) translate(30,30) rotate(0) translate(-30,-30)" fill="#A4A4A4" d="M0 0h60v60H0z"></path><path transform="translate(92, 332) translate(30,30) rotate(0) translate(-30,-30)" fill="#4C4C4C" d="M30 60H0V30l15-15 30 30-15 15z"></path><path transform="translate(92, 332) translate(30,30) rotate(0) translate(-30,-30)" fill="#CBCBCB" d="M15 15h30v30H15z"></path></svg><svg><path transform="translate(92, 392)" fill="#CBCBCB" d="M0 0h60v60H0z"></path><path transform="translate(92, 392)" fill="#A4A4A4" d="M0 0h15v15H0z"></path><path transform="translate(92, 392)" fill="#1C1C1C" d="M15 15h15v15H15z"></path><path transform="translate(92, 392)" fill="#A4A4A4" d="M45 15h15v15H45z"></path><path transform="translate(92, 392)" fill="#4C4C4C" d="M30 0h15v15H30z"></path><path transform="translate(92, 392)" fill="#4C4C4C" d="M0 30h15v15H0z"></path><path transform="translate(92, 392)" fill="#1C1C1C" d="M15 45h15v15H15z"></path><path transform="translate(92, 392)" fill="#4C4C4C" d="M45 45h15v15H45z"></path><path transform="translate(92, 392)" fill="#4C4C4C" d="M30 30h15v15H30z"></path></svg><svg><path transform="translate(92, 452) translate(30,30) rotate(0) translate(-30,-30)" fill="#CBCBCB" d="M0 0h60v60H0z"></path><path transform="translate(92, 452) translate(30,30) rotate(0) translate(-30,-30)" fill="#1C1C1C" d="M0 15h45v45H0z"></path><path transform="translate(92, 452) translate(30,30) rotate(0) translate(-30,-30)" fill="#A4A4A4" d="M0 30h30v30H0z"></path><path transform="translate(92, 452) translate(30,30) rotate(0) translate(-30,-30)" fill="#4C4C4C" d="M0 45h15v15H0z"></path></svg><svg><path transform="translate(92, 512)" fill="#1C1C1C" d="M0 0h60v60H0z"></path><path transform="translate(92, 512)" fill="#A4A4A4" d="M0 0h15v15H0z"></path><path transform="translate(92, 512)" fill="#CBCBCB" d="M15 15h15v15H15z"></path><path transform="translate(92, 512)" fill="#A4A4A4" d="M45 15h15v15H45z"></path><path transform="translate(92, 512)" fill="#A4A4A4" d="M30 0h15v15H30z"></path><path transform="translate(92, 512)" fill="#4C4C4C" d="M0 30h15v15H0z"></path><path transform="translate(92, 512)" fill="#A4A4A4" d="M15 45h15v15H15z"></path><path transform="translate(92, 512)" fill="#CBCBCB" d="M45 45h15v15H45z"></path><path transform="translate(92, 512)" fill="#CBCBCB" d="M30 30h15v15H30z"></path></svg><svg><path transform="translate(92, 572) translate(30,30) rotate(270) translate(-30,-30)" fill="#CBCBCB" d="M0 0h60v60H0z"></path><path transform="translate(92, 572) translate(30,30) rotate(270) translate(-30,-30)" fill="#4C4C4C" d="M30 60H0V30l15-15 30 30-15 15z"></path><path transform="translate(92, 572) translate(30,30) rotate(270) translate(-30,-30)" fill="#A4A4A4" d="M15 15h30v30H15z"></path></svg><svg><path transform="translate(92, 632)" fill="#4C4C4C" d="M0 0h60v60H0z"></path><path transform="translate(92, 632)" fill="#CBCBCB" d="M0 30L30 0l30 30-30 30z"></path><path transform="translate(92, 632)" fill="#A4A4A4" d="M15 15h30v30H15z"></path></svg><svg><path transform="translate(92, 692) translate(30,30) rotate(270) translate(-30,-30)" fill="#A4A4A4" d="M0 0h60v60H0z"></path><path transform="translate(92, 692) translate(30,30) rotate(270) translate(-30,-30)" fill="#1C1C1C" d="M30 60H0V30l15-15 30 30-15 15z"></path><path transform="translate(92, 692) translate(30,30) rotate(270) translate(-30,-30)" fill="#4C4C4C" d="M15 15h30v30H15z"></path></svg><svg><path transform="translate(152, 32) translate(30,30) rotate(90) translate(-30,-30)" fill="#CBCBCB" d="M0 0h60v60H0z"></path><path transform="translate(152, 32) translate(30,30) rotate(90) translate(-30,-30)" fill="#1C1C1C" d="M0 15h45v45H0z"></path><path transform="translate(152, 32) translate(30,30) rotate(90) translate(-30,-30)" fill="#A4A4A4" d="M0 30h30v30H0z"></path><path transform="translate(152, 32) translate(30,30) rotate(90) translate(-30,-30)" fill="#4C4C4C" d="M0 45h15v15H0z"></path></svg><svg><path transform="translate(152, 92) translate(30,30) rotate(180) translate(-30,-30)" fill="#1C1C1C" d="M0 0h60v60H0z"></path><path transform="translate(152, 92) translate(30,30) rotate(180) translate(-30,-30)" fill="#A4A4A4" d="M0 30h60v30H0z"></path><path transform="translate(152, 92) translate(30,30) rotate(180) translate(-30,-30)" fill="#4C4C4C" d="M15 15h30v30H15z"></path></svg><svg><path transform="translate(152, 152)" fill="#4C4C4C" d="M0 0h60v60H0z"></path><path transform="translate(152, 152)" fill="#CBCBCB" d="M0 30L30 0l30 30-30 30z"></path><path transform="translate(152, 152)" fill="#A4A4A4" d="M15 15h30v30H15z"></path></svg><svg><path transform="translate(152, 212)" fill="#4C4C4C" d="M0 0h60v60H0z"></path><path transform="translate(152, 212)" fill="#CBCBCB" d="M12 12h5v5h-5z"></path><path transform="translate(152, 212)" fill="#A4A4A4" d="M22 12h5v5h-5z"></path><path transform="translate(152, 212)" fill="#A4A4A4" d="M32 12h5v5h-5z"></path><path transform="translate(152, 212)" fill="#A4A4A4" d="M42 12h5v5h-5z"></path><path transform="translate(152, 212)" fill="#1C1C1C" d="M12 22h5v5h-5z"></path><path transform="translate(152, 212)" fill="#A4A4A4" d="M22 22h5v5h-5z"></path><path transform="translate(152, 212)" fill="#CBCBCB" d="M32 22h5v5h-5z"></path><path transform="translate(152, 212)" fill="#1C1C1C" d="M42 22h5v5h-5z"></path><path transform="translate(152, 212)" fill="#1C1C1C" d="M12 32h5v5h-5zM22 32h5v5h-5z"></path><path transform="translate(152, 212)" fill="#CBCBCB" d="M32 32h5v5h-5z"></path><path transform="translate(152, 212)" fill="#CBCBCB" d="M42 32h5v5h-5z"></path><path transform="translate(152, 212)" fill="#1C1C1C" d="M12 42h5v5h-5z"></path><path transform="translate(152, 212)" fill="#A4A4A4" d="M22 42h5v5h-5z"></path><path transform="translate(152, 212)" fill="#1C1C1C" d="M32 42h5v5h-5z"></path><path transform="translate(152, 212)" fill="#A4A4A4" d="M42 42h5v5h-5z"></path></svg><svg><path transform="translate(152, 272) translate(30,30) rotate(0) translate(-30,-30)" fill="#A4A4A4" d="M0 0h60v60H0z"></path><path transform="translate(152, 272) translate(30,30) rotate(0) translate(-30,-30)" fill="#1C1C1C" clip-rule="evenodd" fill-rule="evenodd" d="M9.5 9.5v41h41v-41h-41zm40 30v-9h-9v9h9zm-10 0v-9h-9v9h9zm10 1h-9v9h9v-9zm-10 9v-9h-9v9h9zm10-20h-9v-9h9v9zm-10-9v9h-9v-9h9zm10-1v-9h-9v9h9zm-10 0v-9h-9v9h9zm-10 21v9h-9v-9h9zm0-10v9h-9v-9h9zm0-1v-9h-9v9h9zm-9-10h9v-9h-9v9zm-1 20v-9h-9v9h9zm0 10v-9h-9v9h9zm0-29v9h-9v-9h9zm0-1h-9v-9h9v9z"></path><path transform="translate(152, 272) translate(30,30) rotate(0) translate(-30,-30)" fill="#4C4C4C" d="M47 33v4h-4v-4z"></path><path transform="translate(152, 272) translate(30,30) rotate(0) translate(-30,-30)" fill="#CBCBCB" d="M17 43v4h-4v-4z"></path><path transform="translate(152, 272) translate(30,30) rotate(0) translate(-30,-30)" fill="#CBCBCB" d="M27 23v4h-4v-4z"></path></svg><svg><path transform="translate(152, 332) translate(30,30) rotate(90) translate(-30,-30)" fill="#1C1C1C" d="M0 0h60v60H0z"></path><path transform="translate(152, 332) translate(30,30) rotate(90) translate(-30,-30)" fill="#CBCBCB" clip-rule="evenodd" fill-rule="evenodd" d="M9.5 9.5v41h41v-41h-41zm40 30v-9h-9v9h9zm-10 0v-9h-9v9h9zm10 1h-9v9h9v-9zm-10 9v-9h-9v9h9zm10-20h-9v-9h9v9zm-10-9v9h-9v-9h9zm10-1v-9h-9v9h9zm-10 0v-9h-9v9h9zm-10 21v9h-9v-9h9zm0-10v9h-9v-9h9zm0-1v-9h-9v9h9zm-9-10h9v-9h-9v9zm-1 20v-9h-9v9h9zm0 10v-9h-9v9h9zm0-29v9h-9v-9h9zm0-1h-9v-9h9v9z"></path><path transform="translate(152, 332) translate(30,30) rotate(90) translate(-30,-30)" fill="#4C4C4C" d="M47 33v4h-4v-4z"></path><path transform="translate(152, 332) translate(30,30) rotate(90) translate(-30,-30)" fill="#A4A4A4" d="M17 43v4h-4v-4z"></path><path transform="translate(152, 332) translate(30,30) rotate(90) translate(-30,-30)" fill="#4C4C4C" d="M27 23v4h-4v-4z"></path></svg><svg><path transform="translate(152, 392)" fill="#A4A4A4" d="M0 0h60v60H0z"></path><path transform="translate(152, 392)" fill="#1C1C1C" d="M8 7h45v45H8z"></path><path transform="translate(152, 392)" fill="#CBCBCB" d="M16 14h30v30H16z"></path><path transform="translate(152, 392)" fill="#4C4C4C" d="M23 22h15v15H23z"></path></svg><svg><path transform="translate(152, 452)" fill="#1C1C1C" d="M0 0h60v60H0z"></path><path transform="translate(152, 452)" fill="#A4A4A4" d="M12 12h5v5h-5z"></path><path transform="translate(152, 452)" fill="#4C4C4C" d="M22 12h5v5h-5z"></path><path transform="translate(152, 452)" fill="#4C4C4C" d="M32 12h5v5h-5z"></path><path transform="translate(152, 452)" fill="#CBCBCB" d="M42 12h5v5h-5z"></path><path transform="translate(152, 452)" fill="#4C4C4C" d="M12 22h5v5h-5z"></path><path transform="translate(152, 452)" fill="#4C4C4C" d="M22 22h5v5h-5z"></path><path transform="translate(152, 452)" fill="#A4A4A4" d="M32 22h5v5h-5z"></path><path transform="translate(152, 452)" fill="#4C4C4C" d="M42 22h5v5h-5z"></path><path transform="translate(152, 452)" fill="#4C4C4C" d="M12 32h5v5h-5zM22 32h5v5h-5z"></path><path transform="translate(152, 452)" fill="#4C4C4C" d="M32 32h5v5h-5z"></path><path transform="translate(152, 452)" fill="#4C4C4C" d="M42 32h5v5h-5z"></path><path transform="translate(152, 452)" fill="#A4A4A4" d="M12 42h5v5h-5z"></path><path transform="translate(152, 452)" fill="#CBCBCB" d="M22 42h5v5h-5z"></path><path transform="translate(152, 452)" fill="#CBCBCB" d="M32 42h5v5h-5z"></path><path transform="translate(152, 452)" fill="#4C4C4C" d="M42 42h5v5h-5z"></path></svg><svg><path transform="translate(152, 512)" fill="#A4A4A4" d="M0 0h60v60H0z"></path><path transform="translate(152, 512)" fill="#4C4C4C" d="M0 30L30 0l30 30-30 30z"></path><path transform="translate(152, 512)" fill="#1C1C1C" d="M15 15h30v30H15z"></path></svg><svg><path transform="translate(152, 572) translate(30,30) rotate(180) translate(-30,-30)" fill="#4C4C4C" d="M0 0h60v60H0z"></path><path transform="translate(152, 572) translate(30,30) rotate(180) translate(-30,-30)" fill="#A4A4A4" clip-rule="evenodd" fill-rule="evenodd" d="M9.5 9.5v41h41v-41h-41zm40 30v-9h-9v9h9zm-10 0v-9h-9v9h9zm10 1h-9v9h9v-9zm-10 9v-9h-9v9h9zm10-20h-9v-9h9v9zm-10-9v9h-9v-9h9zm10-1v-9h-9v9h9zm-10 0v-9h-9v9h9zm-10 21v9h-9v-9h9zm0-10v9h-9v-9h9zm0-1v-9h-9v9h9zm-9-10h9v-9h-9v9zm-1 20v-9h-9v9h9zm0 10v-9h-9v9h9zm0-29v9h-9v-9h9zm0-1h-9v-9h9v9z"></path><path transform="translate(152, 572) translate(30,30) rotate(180) translate(-30,-30)" fill="#CBCBCB" d="M23 37v-4h4v4z"></path><path transform="translate(152, 572) translate(30,30) rotate(180) translate(-30,-30)" fill="#CBCBCB" d="M43 17v-4h4v4z"></path><path transform="translate(152, 572) translate(30,30) rotate(180) translate(-30,-30)" fill="#CBCBCB" d="M33 17v-4h4v4z"></path><path transform="translate(152, 572) translate(30,30) rotate(180) translate(-30,-30)" fill="#1C1C1C" d="M43 47v-4h4v4z"></path><path transform="translate(152, 572) translate(30,30) rotate(180) translate(-30,-30)" fill="#CBCBCB" d="M13 47v-4h4v4z"></path></svg><svg><path transform="translate(152, 632) translate(30,30) rotate(0) translate(-30,-30)" fill="#1C1C1C" d="M0 0h60v60H0z"></path><path transform="translate(152, 632) translate(30,30) rotate(0) translate(-30,-30)" fill="#4C4C4C" d="M0 15h45v45H0z"></path><path transform="translate(152, 632) translate(30,30) rotate(0) translate(-30,-30)" fill="#CBCBCB" d="M0 30h30v30H0z"></path><path transform="translate(152, 632) translate(30,30) rotate(0) translate(-30,-30)" fill="#A4A4A4" d="M0 45h15v15H0z"></path></svg><svg><path transform="translate(152, 692) translate(30,30) rotate(0) translate(-30,-30)" fill="#4C4C4C" d="M0 0h60v60H0z"></path><path transform="translate(152, 692) translate(30,30) rotate(0) translate(-30,-30)" fill="#1C1C1C" d="M0 30h60v30H0z"></path><path transform="translate(152, 692) translate(30,30) rotate(0) translate(-30,-30)" fill="#A4A4A4" d="M15 15h30v30H15z"></path></svg><svg><path transform="translate(212, 32)" fill="#4C4C4C" d="M0 0h60v60H0z"></path><path transform="translate(212, 32)" fill="#CBCBCB" d="M0 30L30 0l30 30-30 30z"></path><path transform="translate(212, 32)" fill="#1C1C1C" d="M15 15h30v30H15z"></path></svg><svg><path transform="translate(212, 92)" fill="#A4A4A4" d="M0 0h60v60H0z"></path><path transform="translate(212, 92)" fill="#1C1C1C" d="M0 0h15v15H0z"></path><path transform="translate(212, 92)" fill="#1C1C1C" d="M15 15h15v15H15z"></path><path transform="translate(212, 92)" fill="#4C4C4C" d="M45 15h15v15H45z"></path><path transform="translate(212, 92)" fill="#4C4C4C" d="M30 0h15v15H30z"></path><path transform="translate(212, 92)" fill="#CBCBCB" d="M0 30h15v15H0z"></path><path transform="translate(212, 92)" fill="#1C1C1C" d="M15 45h15v15H15z"></path><path transform="translate(212, 92)" fill="#1C1C1C" d="M45 45h15v15H45z"></path><path transform="translate(212, 92)" fill="#4C4C4C" d="M30 30h15v15H30z"></path></svg><svg><path transform="translate(212, 152)" fill="#4C4C4C" d="M0 0h60v60H0z"></path><path transform="translate(212, 152)" fill="#A4A4A4" d="M12 12h5v5h-5z"></path><path transform="translate(212, 152)" fill="#1C1C1C" d="M22 12h5v5h-5z"></path><path transform="translate(212, 152)" fill="#A4A4A4" d="M32 12h5v5h-5z"></path><path transform="translate(212, 152)" fill="#CBCBCB" d="M42 12h5v5h-5z"></path><path transform="translate(212, 152)" fill="#CBCBCB" d="M12 22h5v5h-5z"></path><path transform="translate(212, 152)" fill="#1C1C1C" d="M22 22h5v5h-5z"></path><path transform="translate(212, 152)" fill="#1C1C1C" d="M32 22h5v5h-5z"></path><path transform="translate(212, 152)" fill="#A4A4A4" d="M42 22h5v5h-5z"></path><path transform="translate(212, 152)" fill="#1C1C1C" d="M12 32h5v5h-5zM22 32h5v5h-5z"></path><path transform="translate(212, 152)" fill="#CBCBCB" d="M32 32h5v5h-5z"></path><path transform="translate(212, 152)" fill="#A4A4A4" d="M42 32h5v5h-5z"></path><path transform="translate(212, 152)" fill="#1C1C1C" d="M12 42h5v5h-5z"></path><path transform="translate(212, 152)" fill="#A4A4A4" d="M22 42h5v5h-5z"></path><path transform="translate(212, 152)" fill="#CBCBCB" d="M32 42h5v5h-5z"></path><path transform="translate(212, 152)" fill="#A4A4A4" d="M42 42h5v5h-5z"></path></svg><svg><path transform="translate(212, 212)" fill="#4C4C4C" d="M0 0h60v60H0z"></path><path transform="translate(212, 212)" fill="#CBCBCB" d="M0 30L30 0l30 30-30 30z"></path><path transform="translate(212, 212)" fill="#A4A4A4" d="M15 15h30v30H15z"></path></svg><svg><path transform="translate(212, 272)" fill="#4C4C4C" d="M0 0h60v60H0z"></path><path transform="translate(212, 272)" fill="#CBCBCB" d="M0 0h15v15H0z"></path><path transform="translate(212, 272)" fill="#A4A4A4" d="M15 15h15v15H15z"></path><path transform="translate(212, 272)" fill="#CBCBCB" d="M45 15h15v15H45z"></path><path transform="translate(212, 272)" fill="#1C1C1C" d="M30 0h15v15H30z"></path><path transform="translate(212, 272)" fill="#A4A4A4" d="M0 30h15v15H0z"></path><path transform="translate(212, 272)" fill="#A4A4A4" d="M15 45h15v15H15z"></path><path transform="translate(212, 272)" fill="#A4A4A4" d="M45 45h15v15H45z"></path><path transform="translate(212, 272)" fill="#CBCBCB" d="M30 30h15v15H30z"></path></svg><svg><path transform="translate(212, 332)" fill="#4C4C4C" d="M0 0h60v60H0z"></path><path transform="translate(212, 332)" fill="#A4A4A4" d="M8 7h45v45H8z"></path><path transform="translate(212, 332)" fill="#CBCBCB" d="M16 14h30v30H16z"></path><path transform="translate(212, 332)" fill="#1C1C1C" d="M23 22h15v15H23z"></path></svg><svg><path transform="translate(212, 392)" fill="#CBCBCB" d="M0 0h60v60H0z"></path><path transform="translate(212, 392)" fill="#1C1C1C" d="M0 30L30 0l30 30-30 30z"></path><path transform="translate(212, 392)" fill="#A4A4A4" d="M15 15h30v30H15z"></path></svg><svg><path transform="translate(212, 452)" fill="#4C4C4C" d="M60 0v30H30V0z"></path><path transform="translate(212, 452)" fill="#1C1C1C" d="M30 0v30H0V0z"></path><path transform="translate(212, 452)" fill="#A4A4A4" d="M60 30v30H30V30z"></path><path transform="translate(212, 452)" fill="#CBCBCB" d="M30 30v30H0V30z"></path></svg><svg><path transform="translate(212, 512) translate(30,30) rotate(180) translate(-30,-30)" fill="#CBCBCB" d="M0 0h60v60H0z"></path><path transform="translate(212, 512) translate(30,30) rotate(180) translate(-30,-30)" fill="#4C4C4C" clip-rule="evenodd" fill-rule="evenodd" d="M9.5 9.5v41h41v-41h-41zm40 30v-9h-9v9h9zm-10 0v-9h-9v9h9zm10 1h-9v9h9v-9zm-10 9v-9h-9v9h9zm10-20h-9v-9h9v9zm-10-9v9h-9v-9h9zm10-1v-9h-9v9h9zm-10 0v-9h-9v9h9zm-10 21v9h-9v-9h9zm0-10v9h-9v-9h9zm0-1v-9h-9v9h9zm-9-10h9v-9h-9v9zm-1 20v-9h-9v9h9zm0 10v-9h-9v9h9zm0-29v9h-9v-9h9zm0-1h-9v-9h9v9z"></path><path transform="translate(212, 512) translate(30,30) rotate(180) translate(-30,-30)" fill="#1C1C1C" d="M13 23h4v4h-4z"></path><path transform="translate(212, 512) translate(30,30) rotate(180) translate(-30,-30)" fill="#A4A4A4" d="M33 33h4v4h-4z"></path><path transform="translate(212, 512) translate(30,30) rotate(180) translate(-30,-30)" fill="#1C1C1C" d="M23 43h4v4h-4zM43 13h4v4h-4z"></path></svg><svg><path transform="translate(212, 572)" fill="#1C1C1C" d="M60 0v30H30V0z"></path><path transform="translate(212, 572)" fill="#A4A4A4" d="M30 0v30H0V0z"></path><path transform="translate(212, 572)" fill="#CBCBCB" d="M60 30v30H30V30z"></path><path transform="translate(212, 572)" fill="#4C4C4C" d="M30 30v30H0V30z"></path></svg><svg><path transform="translate(212, 632)" fill="#4C4C4C" d="M0 0h60v60H0z"></path><path transform="translate(212, 632)" fill="#A4A4A4" d="M12 12h5v5h-5z"></path><path transform="translate(212, 632)" fill="#A4A4A4" d="M22 12h5v5h-5z"></path><path transform="translate(212, 632)" fill="#CBCBCB" d="M32 12h5v5h-5z"></path><path transform="translate(212, 632)" fill="#A4A4A4" d="M42 12h5v5h-5z"></path><path transform="translate(212, 632)" fill="#CBCBCB" d="M12 22h5v5h-5z"></path><path transform="translate(212, 632)" fill="#1C1C1C" d="M22 22h5v5h-5z"></path><path transform="translate(212, 632)" fill="#CBCBCB" d="M32 22h5v5h-5z"></path><path transform="translate(212, 632)" fill="#CBCBCB" d="M42 22h5v5h-5z"></path><path transform="translate(212, 632)" fill="#CBCBCB" d="M12 32h5v5h-5zM22 32h5v5h-5z"></path><path transform="translate(212, 632)" fill="#A4A4A4" d="M32 32h5v5h-5z"></path><path transform="translate(212, 632)" fill="#1C1C1C" d="M42 32h5v5h-5z"></path><path transform="translate(212, 632)" fill="#1C1C1C" d="M12 42h5v5h-5z"></path><path transform="translate(212, 632)" fill="#CBCBCB" d="M22 42h5v5h-5z"></path><path transform="translate(212, 632)" fill="#A4A4A4" d="M32 42h5v5h-5z"></path><path transform="translate(212, 632)" fill="#1C1C1C" d="M42 42h5v5h-5z"></path></svg><svg><path transform="translate(212, 692) translate(30,30) rotate(90) translate(-30,-30)" fill="#A4A4A4" d="M0 0h60v60H0z"></path><path transform="translate(212, 692) translate(30,30) rotate(90) translate(-30,-30)" fill="#CBCBCB" d="M30 60H0V30l15-15 30 30-15 15z"></path><path transform="translate(212, 692) translate(30,30) rotate(90) translate(-30,-30)" fill="#1C1C1C" d="M15 15h30v30H15z"></path></svg><svg><path transform="translate(272, 32) translate(30,30) rotate(180) translate(-30,-30)" fill="#CBCBCB" d="M0 0h60v60H0z"></path><path transform="translate(272, 32) translate(30,30) rotate(180) translate(-30,-30)" fill="#1C1C1C" d="M0 15h45v45H0z"></path><path transform="translate(272, 32) translate(30,30) rotate(180) translate(-30,-30)" fill="#4C4C4C" d="M0 30h30v30H0z"></path><path transform="translate(272, 32) translate(30,30) rotate(180) translate(-30,-30)" fill="#A4A4A4" d="M0 45h15v15H0z"></path></svg><svg><path transform="translate(272, 92)" fill="#CBCBCB" d="M0 0h60v60H0z"></path><path transform="translate(272, 92)" fill="#1C1C1C" d="M8 7h45v45H8z"></path><path transform="translate(272, 92)" fill="#A4A4A4" d="M16 14h30v30H16z"></path><path transform="translate(272, 92)" fill="#4C4C4C" d="M23 22h15v15H23z"></path></svg><svg><path transform="translate(272, 152)" fill="#1C1C1C" d="M0 0h60v60H0z"></path><path transform="translate(272, 152)" fill="#4C4C4C" d="M12 12h5v5h-5z"></path><path transform="translate(272, 152)" fill="#A4A4A4" d="M22 12h5v5h-5z"></path><path transform="translate(272, 152)" fill="#A4A4A4" d="M32 12h5v5h-5z"></path><path transform="translate(272, 152)" fill="#4C4C4C" d="M42 12h5v5h-5z"></path><path transform="translate(272, 152)" fill="#A4A4A4" d="M12 22h5v5h-5z"></path><path transform="translate(272, 152)" fill="#A4A4A4" d="M22 22h5v5h-5z"></path><path transform="translate(272, 152)" fill="#CBCBCB" d="M32 22h5v5h-5z"></path><path transform="translate(272, 152)" fill="#A4A4A4" d="M42 22h5v5h-5z"></path><path transform="translate(272, 152)" fill="#4C4C4C" d="M12 32h5v5h-5zM22 32h5v5h-5z"></path><path transform="translate(272, 152)" fill="#4C4C4C" d="M32 32h5v5h-5z"></path><path transform="translate(272, 152)" fill="#4C4C4C" d="M42 32h5v5h-5z"></path><path transform="translate(272, 152)" fill="#A4A4A4" d="M12 42h5v5h-5z"></path><path transform="translate(272, 152)" fill="#4C4C4C" d="M22 42h5v5h-5z"></path><path transform="translate(272, 152)" fill="#4C4C4C" d="M32 42h5v5h-5z"></path><path transform="translate(272, 152)" fill="#4C4C4C" d="M42 42h5v5h-5z"></path></svg><svg><path transform="translate(272, 212) translate(30,30) rotate(0) translate(-30,-30)" fill="#A4A4A4" d="M0 0h60v60H0z"></path><path transform="translate(272, 212) translate(30,30) rotate(0) translate(-30,-30)" fill="#4C4C4C" d="M0 30h60v30H0z"></path><path transform="translate(272, 212) translate(30,30) rotate(0) translate(-30,-30)" fill="#1C1C1C" d="M15 15h30v30H15z"></path></svg><svg><path transform="translate(272, 272)" fill="#CBCBCB" d="M60 0v30H30V0z"></path><path transform="translate(272, 272)" fill="#4C4C4C" d="M30 0v30H0V0z"></path><path transform="translate(272, 272)" fill="#A4A4A4" d="M60 30v30H30V30z"></path><path transform="translate(272, 272)" fill="#1C1C1C" d="M30 30v30H0V30z"></path></svg><svg><path transform="translate(272, 332) translate(30,30) rotate(0) translate(-30,-30)" fill="#4C4C4C" d="M0 0h60v60H0z"></path><path transform="translate(272, 332) translate(30,30) rotate(0) translate(-30,-30)" fill="#1C1C1C" clip-rule="evenodd" fill-rule="evenodd" d="M9.5 9.5v41h41v-41h-41zm40 30v-9h-9v9h9zm-10 0v-9h-9v9h9zm10 1h-9v9h9v-9zm-10 9v-9h-9v9h9zm10-20h-9v-9h9v9zm-10-9v9h-9v-9h9zm10-1v-9h-9v9h9zm-10 0v-9h-9v9h9zm-10 21v9h-9v-9h9zm0-10v9h-9v-9h9zm0-1v-9h-9v9h9zm-9-10h9v-9h-9v9zm-1 20v-9h-9v9h9zm0 10v-9h-9v9h9zm0-29v9h-9v-9h9zm0-1h-9v-9h9v9z"></path><path transform="translate(272, 332) translate(30,30) rotate(0) translate(-30,-30)" fill="#CBCBCB" d="M13 23h4v4h-4z"></path><path transform="translate(272, 332) translate(30,30) rotate(0) translate(-30,-30)" fill="#CBCBCB" d="M33 33h4v4h-4z"></path><path transform="translate(272, 332) translate(30,30) rotate(0) translate(-30,-30)" fill="#A4A4A4" d="M23 43h4v4h-4zM43 13h4v4h-4z"></path></svg><svg><path transform="translate(272, 392)" fill="#CBCBCB" d="M60 0v30H30V0z"></path><path transform="translate(272, 392)" fill="#A4A4A4" d="M30 0v30H0V0z"></path><path transform="translate(272, 392)" fill="#4C4C4C" d="M60 30v30H30V30z"></path><path transform="translate(272, 392)" fill="#1C1C1C" d="M30 30v30H0V30z"></path></svg><svg><path transform="translate(272, 452)" fill="#CBCBCB" d="M0 0h60v60H0z"></path><path transform="translate(272, 452)" fill="#A4A4A4" d="M12 12h5v5h-5z"></path><path transform="translate(272, 452)" fill="#4C4C4C" d="M22 12h5v5h-5z"></path><path transform="translate(272, 452)" fill="#4C4C4C" d="M32 12h5v5h-5z"></path><path transform="translate(272, 452)" fill="#A4A4A4" d="M42 12h5v5h-5z"></path><path transform="translate(272, 452)" fill="#A4A4A4" d="M12 22h5v5h-5z"></path><path transform="translate(272, 452)" fill="#4C4C4C" d="M22 22h5v5h-5z"></path><path transform="translate(272, 452)" fill="#4C4C4C" d="M32 22h5v5h-5z"></path><path transform="translate(272, 452)" fill="#4C4C4C" d="M42 22h5v5h-5z"></path><path transform="translate(272, 452)" fill="#1C1C1C" d="M12 32h5v5h-5zM22 32h5v5h-5z"></path><path transform="translate(272, 452)" fill="#1C1C1C" d="M32 32h5v5h-5z"></path><path transform="translate(272, 452)" fill="#4C4C4C" d="M42 32h5v5h-5z"></path><path transform="translate(272, 452)" fill="#1C1C1C" d="M12 42h5v5h-5z"></path><path transform="translate(272, 452)" fill="#1C1C1C" d="M22 42h5v5h-5z"></path><path transform="translate(272, 452)" fill="#4C4C4C" d="M32 42h5v5h-5z"></path><path transform="translate(272, 452)" fill="#4C4C4C" d="M42 42h5v5h-5z"></path></svg><svg><path transform="translate(272, 512)" fill="#4C4C4C" d="M0 0h60v60H0z"></path><path transform="translate(272, 512)" fill="#1C1C1C" d="M0 30L30 0l30 30-30 30z"></path><path transform="translate(272, 512)" fill="#CBCBCB" d="M15 15h30v30H15z"></path></svg><svg><path transform="translate(272, 572) translate(30,30) rotate(180) translate(-30,-30)" fill="#A4A4A4" d="M0 0h60v60H0z"></path><path transform="translate(272, 572) translate(30,30) rotate(180) translate(-30,-30)" fill="#1C1C1C" d="M0 15h45v45H0z"></path><path transform="translate(272, 572) translate(30,30) rotate(180) translate(-30,-30)" fill="#CBCBCB" d="M0 30h30v30H0z"></path><path transform="translate(272, 572) translate(30,30) rotate(180) translate(-30,-30)" fill="#4C4C4C" d="M0 45h15v15H0z"></path></svg><svg><path transform="translate(272, 632) translate(30,30) rotate(180) translate(-30,-30)" fill="#A4A4A4" d="M0 0h60v60H0z"></path><path transform="translate(272, 632) translate(30,30) rotate(180) translate(-30,-30)" fill="#1C1C1C" d="M0 30h60v30H0z"></path><path transform="translate(272, 632) translate(30,30) rotate(180) translate(-30,-30)" fill="#CBCBCB" d="M15 15h30v30H15z"></path></svg><svg><path transform="translate(272, 692)" fill="#A4A4A4" d="M0 0h60v60H0z"></path><path transform="translate(272, 692)" fill="#4C4C4C" d="M0 30L30 0l30 30-30 30z"></path><path transform="translate(272, 692)" fill="#1C1C1C" d="M15 15h30v30H15z"></path></svg><svg><path transform="translate(332, 32)" fill="#1C1C1C" d="M0 0h60v60H0z"></path><path transform="translate(332, 32)" fill="#A4A4A4" d="M0 0h15v15H0z"></path><path transform="translate(332, 32)" fill="#A4A4A4" d="M15 15h15v15H15z"></path><path transform="translate(332, 32)" fill="#A4A4A4" d="M45 15h15v15H45z"></path><path transform="translate(332, 32)" fill="#CBCBCB" d="M30 0h15v15H30z"></path><path transform="translate(332, 32)" fill="#4C4C4C" d="M0 30h15v15H0z"></path><path transform="translate(332, 32)" fill="#A4A4A4" d="M15 45h15v15H15z"></path><path transform="translate(332, 32)" fill="#CBCBCB" d="M45 45h15v15H45z"></path><path transform="translate(332, 32)" fill="#4C4C4C" d="M30 30h15v15H30z"></path></svg><svg><path transform="translate(332, 92) translate(30,30) rotate(0) translate(-30,-30)" fill="#CBCBCB" d="M0 0h60v60H0z"></path><path transform="translate(332, 92) translate(30,30) rotate(0) translate(-30,-30)" fill="#4C4C4C" clip-rule="evenodd" fill-rule="evenodd" d="M9.5 9.5v41h41v-41h-41zm40 30v-9h-9v9h9zm-10 0v-9h-9v9h9zm10 1h-9v9h9v-9zm-10 9v-9h-9v9h9zm10-20h-9v-9h9v9zm-10-9v9h-9v-9h9zm10-1v-9h-9v9h9zm-10 0v-9h-9v9h9zm-10 21v9h-9v-9h9zm0-10v9h-9v-9h9zm0-1v-9h-9v9h9zm-9-10h9v-9h-9v9zm-1 20v-9h-9v9h9zm0 10v-9h-9v9h9zm0-29v9h-9v-9h9zm0-1h-9v-9h9v9z"></path><path transform="translate(332, 92) translate(30,30) rotate(0) translate(-30,-30)" fill="#1C1C1C" d="M13 23h4v4h-4z"></path><path transform="translate(332, 92) translate(30,30) rotate(0) translate(-30,-30)" fill="#1C1C1C" d="M33 33h4v4h-4z"></path><path transform="translate(332, 92) translate(30,30) rotate(0) translate(-30,-30)" fill="#A4A4A4" d="M23 43h4v4h-4zM43 13h4v4h-4z"></path></svg><svg><path transform="translate(332, 152)" fill="#1C1C1C" d="M60 0v30H30V0z"></path><path transform="translate(332, 152)" fill="#CBCBCB" d="M30 0v30H0V0z"></path><path transform="translate(332, 152)" fill="#4C4C4C" d="M60 30v30H30V30z"></path><path transform="translate(332, 152)" fill="#A4A4A4" d="M30 30v30H0V30z"></path></svg><svg><path transform="translate(332, 212)" fill="#A4A4A4" d="M0 0h60v60H0z"></path><path transform="translate(332, 212)" fill="#1C1C1C" d="M0 0h15v15H0z"></path><path transform="translate(332, 212)" fill="#1C1C1C" d="M15 15h15v15H15z"></path><path transform="translate(332, 212)" fill="#4C4C4C" d="M45 15h15v15H45z"></path><path transform="translate(332, 212)" fill="#CBCBCB" d="M30 0h15v15H30z"></path><path transform="translate(332, 212)" fill="#CBCBCB" d="M0 30h15v15H0z"></path><path transform="translate(332, 212)" fill="#4C4C4C" d="M15 45h15v15H15z"></path><path transform="translate(332, 212)" fill="#CBCBCB" d="M45 45h15v15H45z"></path><path transform="translate(332, 212)" fill="#4C4C4C" d="M30 30h15v15H30z"></path></svg><svg><path transform="translate(332, 272)" fill="#1C1C1C" d="M0 0h60v60H0z"></path><path transform="translate(332, 272)" fill="#CBCBCB" d="M12 12h5v5h-5z"></path><path transform="translate(332, 272)" fill="#A4A4A4" d="M22 12h5v5h-5z"></path><path transform="translate(332, 272)" fill="#4C4C4C" d="M32 12h5v5h-5z"></path><path transform="translate(332, 272)" fill="#CBCBCB" d="M42 12h5v5h-5z"></path><path transform="translate(332, 272)" fill="#4C4C4C" d="M12 22h5v5h-5z"></path><path transform="translate(332, 272)" fill="#A4A4A4" d="M22 22h5v5h-5z"></path><path transform="translate(332, 272)" fill="#CBCBCB" d="M32 22h5v5h-5z"></path><path transform="translate(332, 272)" fill="#4C4C4C" d="M42 22h5v5h-5z"></path><path transform="translate(332, 272)" fill="#4C4C4C" d="M12 32h5v5h-5zM22 32h5v5h-5z"></path><path transform="translate(332, 272)" fill="#4C4C4C" d="M32 32h5v5h-5z"></path><path transform="translate(332, 272)" fill="#4C4C4C" d="M42 32h5v5h-5z"></path><path transform="translate(332, 272)" fill="#4C4C4C" d="M12 42h5v5h-5z"></path><path transform="translate(332, 272)" fill="#CBCBCB" d="M22 42h5v5h-5z"></path><path transform="translate(332, 272)" fill="#A4A4A4" d="M32 42h5v5h-5z"></path><path transform="translate(332, 272)" fill="#CBCBCB" d="M42 42h5v5h-5z"></path></svg><svg><path transform="translate(332, 332) translate(30,30) rotate(180) translate(-30,-30)" fill="#4C4C4C" d="M0 0h60v60H0z"></path><path transform="translate(332, 332) translate(30,30) rotate(180) translate(-30,-30)" fill="#CBCBCB" d="M30 60H0V30l15-15 30 30-15 15z"></path><path transform="translate(332, 332) translate(30,30) rotate(180) translate(-30,-30)" fill="#A4A4A4" d="M15 15h30v30H15z"></path></svg><svg><path transform="translate(332, 392)" fill="#A4A4A4" d="M0 0h60v60H0z"></path><path transform="translate(332, 392)" fill="#4C4C4C" d="M0 0h15v15H0z"></path><path transform="translate(332, 392)" fill="#CBCBCB" d="M15 15h15v15H15z"></path><path transform="translate(332, 392)" fill="#4C4C4C" d="M45 15h15v15H45z"></path><path transform="translate(332, 392)" fill="#1C1C1C" d="M30 0h15v15H30z"></path><path transform="translate(332, 392)" fill="#1C1C1C" d="M0 30h15v15H0z"></path><path transform="translate(332, 392)" fill="#CBCBCB" d="M15 45h15v15H15z"></path><path transform="translate(332, 392)" fill="#CBCBCB" d="M45 45h15v15H45z"></path><path transform="translate(332, 392)" fill="#CBCBCB" d="M30 30h15v15H30z"></path></svg><svg><path transform="translate(332, 452)" fill="#4C4C4C" d="M60 0v30H30V0z"></path><path transform="translate(332, 452)" fill="#CBCBCB" d="M30 0v30H0V0z"></path><path transform="translate(332, 452)" fill="#A4A4A4" d="M60 30v30H30V30z"></path><path transform="translate(332, 452)" fill="#1C1C1C" d="M30 30v30H0V30z"></path></svg><svg><path transform="translate(332, 512)" fill="#CBCBCB" d="M0 0h60v60H0z"></path><path transform="translate(332, 512)" fill="#1C1C1C" d="M0 0h15v15H0z"></path><path transform="translate(332, 512)" fill="#4C4C4C" d="M15 15h15v15H15z"></path><path transform="translate(332, 512)" fill="#4C4C4C" d="M45 15h15v15H45z"></path><path transform="translate(332, 512)" fill="#A4A4A4" d="M30 0h15v15H30z"></path><path transform="translate(332, 512)" fill="#4C4C4C" d="M0 30h15v15H0z"></path><path transform="translate(332, 512)" fill="#4C4C4C" d="M15 45h15v15H15z"></path><path transform="translate(332, 512)" fill="#A4A4A4" d="M45 45h15v15H45z"></path><path transform="translate(332, 512)" fill="#4C4C4C" d="M30 30h15v15H30z"></path></svg><svg><path transform="translate(332, 572)" fill="#4C4C4C" d="M0 0h60v60H0z"></path><path transform="translate(332, 572)" fill="#CBCBCB" d="M8 7h45v45H8z"></path><path transform="translate(332, 572)" fill="#A4A4A4" d="M16 14h30v30H16z"></path><path transform="translate(332, 572)" fill="#1C1C1C" d="M23 22h15v15H23z"></path></svg><svg><path transform="translate(332, 632)" fill="#1C1C1C" d="M0 0h60v60H0z"></path><path transform="translate(332, 632)" fill="#CBCBCB" d="M0 0h15v15H0z"></path><path transform="translate(332, 632)" fill="#4C4C4C" d="M15 15h15v15H15z"></path><path transform="translate(332, 632)" fill="#CBCBCB" d="M45 15h15v15H45z"></path><path transform="translate(332, 632)" fill="#CBCBCB" d="M30 0h15v15H30z"></path><path transform="translate(332, 632)" fill="#CBCBCB" d="M0 30h15v15H0z"></path><path transform="translate(332, 632)" fill="#CBCBCB" d="M15 45h15v15H15z"></path><path transform="translate(332, 632)" fill="#A4A4A4" d="M45 45h15v15H45z"></path><path transform="translate(332, 632)" fill="#A4A4A4" d="M30 30h15v15H30z"></path></svg><svg><path transform="translate(332, 692) translate(30,30) rotate(270) translate(-30,-30)" fill="#1C1C1C" d="M0 0h60v60H0z"></path><path transform="translate(332, 692) translate(30,30) rotate(270) translate(-30,-30)" fill="#CBCBCB" d="M0 30h60v30H0z"></path><path transform="translate(332, 692) translate(30,30) rotate(270) translate(-30,-30)" fill="#4C4C4C" d="M15 15h30v30H15z"></path></svg></svg>