<svg width="360" height="626" viewBox="0 0 360 626" fill="none" xmlns="http://www.w3.org/2000/svg">
<g clip-path="url(#clip0_33_106)">
<path d="M33.4146 393.815L46.7754 387.566L59.8487 392.307L82.1168 381.892C84.4791 380.788 87.1836 380.666 89.6353 381.555C92.0871 382.445 94.0851 384.271 95.19 386.634L109.771 417.809C110.876 420.171 110.997 422.876 110.108 425.328C109.219 427.779 107.392 429.777 105.03 430.882L60.4935 451.712C58.1311 452.817 55.4266 452.938 52.9749 452.049C50.5232 451.16 48.5251 449.333 47.4202 446.971L28.6733 406.888C27.5684 404.526 27.4472 401.821 28.3364 399.37C29.2255 396.918 31.0522 394.92 33.4146 393.815Z" stroke="#293B5E" stroke-width="8" stroke-linecap="round" stroke-linejoin="round"/>
<path d="M96.1224 435.048L100.288 443.955C101.393 446.318 101.514 449.022 100.625 451.474C99.7362 453.926 97.9095 455.924 95.5471 457.029L51.0109 477.859C48.6486 478.964 45.9441 479.085 43.4924 478.196C41.0407 477.306 39.0426 475.48 37.9377 473.117L19.1908 433.035C18.0859 430.672 17.9647 427.968 18.8538 425.516C19.743 423.065 21.5697 421.066 23.932 419.962L32.8393 415.796" stroke="#293B5E" stroke-width="8" stroke-linecap="round" stroke-linejoin="round"/>
</g>
<g clip-path="url(#clip1_33_106)">
<path d="M329.727 44.2486L276.858 47.264L240.654 85.9085L293.522 82.893L329.727 44.2486ZM329.727 44.2486L342.225 70.9703" stroke="#293B5E" stroke-width="8" stroke-linecap="round" stroke-linejoin="round"/>
<path d="M261.802 84.7023L273.05 108.752C274.707 112.295 279.112 114.377 285.295 114.539C291.478 114.701 298.933 112.929 306.02 109.615C313.107 106.3 319.246 101.714 323.085 96.8641C326.925 92.0146 328.15 87.2995 326.493 83.7559L315.245 59.7064" stroke="#293B5E" stroke-width="8" stroke-linecap="round" stroke-linejoin="round"/>
</g>
<g clip-path="url(#clip2_33_106)">
<path d="M241.6 503.191L249.932 521.006C250.484 522.187 251.483 523.1 252.709 523.545C253.935 523.989 255.287 523.929 256.468 523.376L274.283 515.044" stroke="#293B5E" stroke-width="8" stroke-linecap="round" stroke-linejoin="round"/>
<path d="M292.454 577.108L247.918 597.937C245.556 599.042 242.851 599.164 240.4 598.274C237.948 597.385 235.95 595.559 234.845 593.196L205.683 530.845C204.578 528.483 204.457 525.779 205.346 523.327C206.235 520.875 208.062 518.877 210.424 517.772L241.6 503.191L274.283 515.044L297.196 564.034C298.301 566.397 298.422 569.101 297.533 571.553C296.643 574.005 294.817 576.003 292.454 577.108Z" stroke="#293B5E" stroke-width="8" stroke-linecap="round" stroke-linejoin="round"/>
<path d="M247.273 538.533L255.605 556.347L273.42 548.015" stroke="#293B5E" stroke-width="8" stroke-linecap="round" stroke-linejoin="round"/>
<path d="M263.937 574.162C273.776 569.56 278.021 557.854 273.42 548.015C268.818 538.176 257.112 533.931 247.273 538.533C237.435 543.134 233.189 554.84 237.791 564.679C242.392 574.518 254.099 578.763 263.937 574.162Z" stroke="#293B5E" stroke-width="8" stroke-linecap="round" stroke-linejoin="round"/>
</g>
<defs>
<clipPath id="clip0_33_106">
<rect width="118" height="118" fill="white" transform="translate(-15 394.748) rotate(-25.0658)"/>
</clipPath>
<clipPath id="clip1_33_106">
<rect width="118" height="118" fill="white" transform="translate(213 49.9918) rotate(-25.0658)"/>
</clipPath>
<clipPath id="clip2_33_106">
<rect width="118" height="118" fill="white" transform="translate(173 518.992) rotate(-25.0658)"/>
</clipPath>
</defs>
</svg>
